<svg fill="#FFFFFF" xmlns="http://www.w3.org/2000/svg" data-name="Layer 1" viewBox="0 0 100 100" x="0px" y="0px"><title>wing</title><path d="M32.08,91.58c-9.41,5.5-23,2.9-26.58.34,5.44-5,26.42-26.59,24.54-60.21C46.29,28.82,79,21.89,94.64,5a30.19,30.19,0,0,1,.72,6.51c0,22.88-27.76,36.83-45.22,34.27a73.5,73.5,0,0,0,24.36,4.8,62.84,62.84,0,0,0,19.94-3.22c-2.94,15.77-15,26.19-30.11,26.19-8.48,0-21-3.78-25.94-10.52,3.79,9.86,18.69,16.3,30.36,17.52-4.4,6.37-12.66,8.67-20.57,8.67-7.25,0-15-5.9-19.43-11.25C28.25,82.83,30.7,88.81,32.08,91.58Z"></path></svg>