<?xml version="1.0" standalone="no"?>
<!DOCTYPE svg PUBLIC "-//W3C//DTD SVG 20010904//EN"
 "http://www.w3.org/TR/2001/REC-SVG-20010904/DTD/svg10.dtd">
<svg version="1.0" xmlns="http://www.w3.org/2000/svg"
 width="540.000000pt" height="540.000000pt" viewBox="0 0 540.000000 540.000000"
 preserveAspectRatio="xMidYMid meet">
<metadata>
Created by potrace 1.11, written by Peter Selinger 2001-2013
</metadata>
<g transform="translate(0.000000,540.000000) scale(0.100000,-0.100000)"
fill="#000000" stroke="none">
<path d="M38 5375 c-15 -14 -30 -36 -33 -48 -3 -12 -4 -1204 -3 -2649 l3
-2627 25 -23 25 -23 2630 -3 c1967 -2 2637 1 2658 9 61 26 57 -177 57 2689 0
1967 -3 2627 -12 2643 -6 12 -18 28 -26 37 -14 13 -309 15 -2656 18 l-2641 2
-27 -25z m5289 -19 c12 -4 25 -19 30 -34 5 -15 9 -1163 8 -2634 l0 -2608 -23
-22 -22 -23 -2618 0 -2617 0 -25 25 -25 25 1 2610 c0 1436 4 2620 8 2632 4 12
18 25 31 30 31 10 5221 9 5252 -1z"/>
<path d="M336 5058 c-14 -20 -16 -263 -16 -2385 l0 -2362 22 -15 c20 -14 263
-16 2385 -16 l2362 0 15 22 c14 20 16 263 16 2385 l0 2362 -22 15 c-20 14
-263 16 -2385 16 l-2362 0 -15 -22z"/>
</g>
</svg>
